# xmcd
#
# Track frame offsets:
#	150
#	18410
#	29283
#	46529
#	65196
#	76143
#	94881
#	103957
#	123301
#	136270
#	149012
#	161385
#	178850
#	194521
#	219260
#	232532
#	246549
#	263121
#	280961
#	293854
#
# Disc length: 4325 seconds
#
# Revision: 0
# Processed by: cddbd v1.5.2PL0 Copyright (c) Steve Scherf et al.
# Submitted via: EasyCDDAExtractor 16.0.6.1
#
DISCID=2510e314
DTITLE=Ξυλούρης Νίκος - Πορτραίτα minos 13-Ν. Ξυλούρης
DYEAR=1995
DGENRE=Ποικίλη
TTITLE0=Ξυλούρης Νίκος - Αυτόν τον κόσμο τον καλό [Σ. Ξαρχάκου-Β. Ανδρεόπουλου
TTITLE0=]
TTITLE1=Ξυλούρης Νίκος-χορωδία - Φίλοι κι αδέλφια [χορωδία, Σ. Ξαρχάκου-Ι. Καμ
TTITLE1=πανέλλη]
TTITLE2=Ξυλούρης Νίκος-Ρίτσος Γιάννης - Αυτά τα κόκκινα σημάδια [απαγγ. Γ. Ρίτ
TTITLE2=σος, Χ. Λεοντή-Γ. Ρίτσου]
TTITLE3=Ξυλούρης Νίκος - Γεννήθηκα [Γ. Μαρκόπουλου-Κ. Χ. Μύρη]
TTITLE4=Ξυλούρης Νίκος-χορωδία - Εδώ τελειώνουν τα έργα της θάλασσας [χορ., Η.
TTITLE4=Ανδρεόπουλου-Γ. Σεφέρη]
TTITLE5=Ξυλούρης Νίκος-Σπυράτου Μ. - Χίλια μύρια κύματα [βφ Μ. Σπυράτου, Γ. Μα
TTITLE5=ρκόπουλου-Κ. Χ. Μύρη]
TTITLE6=Ξυλούρης Νίκος - Γεια σου χαρά σου Βενετιά [Σ. Ξαρχάκου-Ν. Γκάτσου]
TTITLE7=Ξυλούρης Νίκος-Ρίτσος Γιάννης - Και να αδελφέ μου [απαγγ. Γ. Ρίτσος, Χ
TTITLE7=Λεοντή-Γ. Ρίτσου]
TTITLE8=Ξυλούρης Νίκος - Την εικόνα σου [Γ. Μαρκόπουλου-Μ. Κατσαρού]
TTITLE9=Ξυλούρης Νίκος - Πάνω στ' αργυρό σκαμνί [Χ. Χάλαρη-Γ. Κακουλίδη]
TTITLE10=Ξυλούρης Νίκος-χορωδία - Πότε θα κάνει ξαστεριά [ριζίτικο Κρήτης, χορ
TTITLE10=, Γ. Μαρκόπουλου]
TTITLE11=Ξυλούρης Νίκος - Ο Διγενής [ριζίτικο Κρήτης, Γ. Μαρκόπουλου]
TTITLE12=Ξυλούρης Νίκος-χορωδία - Αγρίμια κι αγριμάκια μου [ριζίτικο Κρήτης, χ
TTITLE12=ορ., Γ. Μαρκόπουλου]
TTITLE13=Ξυλούρης Νίκος - Μάννα κι αν έρθουν οι φίλοι μου [ριζίτικο Κρήτης, Γ.
TTITLE13=Μαρκόπουλου]
TTITLE14=Ξυλούρης Νίκος-χορωδία - Από την άκρη των ακριώ [ριζίτικο Κρήτης, χορ
TTITLE14=, Γ. Μαρκόπουλου, διεύθ. ιδίου]
TTITLE15=Ξυλούρης Νίκος - Όσο βαρούν τα σίδερα [ριζίτικο Κρήτης, Ν. Ξυλούρη]
TTITLE16=Ξυλούρης Νίκος-χορωδία - Φίλεντεμ (Μιά παντρεμένη αγαπώ) [ριζίτικο Κρ
TTITLE16=ήτης, Ν. Ξυλούρη-Γ. Ξυλούρη]
TTITLE17=Ξυλούρης Νίκος - Τζαναμπέτισσα [ριζίτικο Κρήτης, Ο. Μελαμπιανάκη]
TTITLE18=Ξυλούρης Νίκος-χορωδία - Το ξηροστεριανό νερό [ριζίτικο Κρήτης, Ν. Ξυ
TTITLE18=λούρη-Γ. Ξυλούρη]
TTITLE19=Ξυλούρης Νίκος - Ερωτόκριτος (Το παραμύθι του Ερωτόκριτου) [Ο. Μελαμπ
TTITLE19=ιανάκη]
EXTD=
EXTT0=
EXTT1=
EXTT2=
EXTT3=
EXTT4=
EXTT5=
EXTT6=
EXTT7=
EXTT8=
EXTT9=
EXTT10=
EXTT11=
EXTT12=
EXTT13=
EXTT14=
EXTT15=
EXTT16=
EXTT17=
EXTT18=
EXTT19=
PLAYORDER=
